<?xml version="1.0" encoding="UTF-8" standalone="no"?>
<svg
   width="16"
   height="16"
   version="1.1"
   id="svg1"
   sodipodi:docname="TiletoGridMap.svg"
   inkscape:version="1.4 (86a8ad7, 2024-10-11)"
   xml:space="preserve"
   xmlns:inkscape="http://www.inkscape.org/namespaces/inkscape"
   xmlns:sodipodi="http://sodipodi.sourceforge.net/DTD/sodipodi-0.dtd"
   xmlns="http://www.w3.org/2000/svg"
   xmlns:svg="http://www.w3.org/2000/svg"><defs
     id="defs1" /><sodipodi:namedview
     id="namedview1"
     pagecolor="#ffffff"
     bordercolor="#000000"
     borderopacity="0.25"
     inkscape:showpageshadow="2"
     inkscape:pageopacity="0.0"
     inkscape:pagecheckerboard="0"
     inkscape:deskcolor="#d1d1d1"
     inkscape:zoom="56.71875"
     inkscape:cx="-3.7289256"
     inkscape:cy="7.2727273"
     inkscape:window-width="3840"
     inkscape:window-height="2054"
     inkscape:window-x="2869"
     inkscape:window-y="-11"
     inkscape:window-maximized="1"
     inkscape:current-layer="svg1" /><path
     fill="#fc7f7f"
     d="m8 1-6 3v8l6 3 6-3v-2l-2-1-4 2-2-1v-4l2-1v-2l2-1zm4 2-2 1v2l2 1 2-1v-2z"
     id="path1" /><path
     fill="#8da5f3"
     d="m 8.0077135,1.7539945 -1.75,1.375 1.75,1.375 1.75,-1.375 z m 2.6239995,2.062 -1.7499995,1.375 1.7499995,1.375 1.75,-1.375 z m 2.626,2.063 -1.75,1.375 1.75,1.375 1.75,-1.375 z m -7.8739995,-2.063 -1.75,1.375 1.75,1.375 1.75,-1.375 z m 2.624,2.062 -1.75,1.375 1.75,1.375 1.75,-1.375 z m 2.6259995,2.063 -1.7499995,1.375 1.7499995,1.3749995 1.75,-1.3749995 z m -7.8759995,-2.062 -1.75,1.375 1.75,1.375 1.75,-1.375 z m 2.624,2.062 -1.75,1.375 1.75,1.3749995 1.75,-1.3749995 z m 2.626,2.0629995 -1.75,1.375 1.75,1.375 1.75,-1.375 z"
     id="path1-8"
     transform="translate(-0.00771325,0.74600575)" /></svg>
